<?xml version="1.0" standalone="no"?>
<!DOCTYPE svg PUBLIC "-//W3C//DTD SVG 20010904//EN"
 "http://www.w3.org/TR/2001/REC-SVG-20010904/DTD/svg10.dtd">
<svg version="1.0" xmlns="http://www.w3.org/2000/svg"
 width="225.000000pt" height="225.000000pt" viewBox="0 0 225.000000 225.000000"
 preserveAspectRatio="xMidYMid meet">
<metadata>
Created by potrace 1.15, written by Peter Selinger 2001-2017
</metadata>
<g transform="translate(0.000000,225.000000) scale(0.100000,-0.100000)"
fill="#000000" stroke="none">
<path d="M994 2110 c-123 -19 -252 -79 -353 -166 -148 -127 -211 -259 -211
-444 0 -95 28 -226 61 -293 18 -35 539 -932 601 -1035 l20 -33 240 433 c372
671 386 697 402 768 19 81 20 195 2 281 -49 231 -225 406 -469 468 -87 22
-223 32 -293 21z m250 -186 c227 -78 360 -304 313 -530 -28 -132 -96 -231
-209 -304 -82 -54 -166 -74 -278 -68 -79 5 -101 10 -166 43 -236 116 -329 385
-217 624 33 70 131 169 202 206 109 55 246 66 355 29z"/>
<path d="M891 1646 c-49 -50 -56 -53 -91 -49 -31 4 -40 2 -49 -16 -10 -18 -8
-21 13 -27 22 -5 23 -9 15 -33 -5 -15 -8 -81 -7 -147 l3 -119 53 -3 c57 -3 82
8 82 39 0 18 11 19 195 19 184 0 195 -1 195 -19 0 -31 25 -42 82 -39 l53 3 0
130 c0 72 -4 140 -8 153 -7 18 -5 22 13 22 15 0 20 5 18 18 -3 13 -13 17 -45
17 -38 0 -48 6 -95 53 l-54 52 -160 0 -160 0 -53 -54z m424 -27 c47 -48 54
-59 35 -53 -14 4 -133 7 -264 6 l-239 -1 53 54 54 55 151 0 151 0 59 -61z
m-25 -113 c0 -2 -12 -18 -27 -35 l-27 -31 -143 0 c-143 0 -143 0 -155 25 -6
14 -15 25 -20 25 -4 0 -8 5 -8 10 0 6 70 10 190 10 105 0 190 -2 190 -4z"/>
</g>
</svg>
